<svg xmlns="http://www.w3.org/2000/svg" viewBox="0 0 384 512" fill="currentColor">
  <path d="M360 0H24C10.7 0 0 10.7 0 24v16c0 13.3 10.7 24 24 24h32v80c0 48.7 26.6 91 66 113.3-39.4 22.3-66 64.6-66 113.3v80H24c-13.3 0-24 10.7-24 24v16c0 13.3 10.7 24 24 24h336c13.3 0 24-10.7 24-24v-16c0-13.3-10.7-24-24-24h-32v-80c0-48.7-26.6-91-66-113.3 39.4-22.3 66-64.6 66-113.3V64h32c13.3 0 24-10.7 24-24V24c0-13.3-10.7-24-24-24zm-64 352v80H88v-80c0-39.7 32.3-72 72-72h48c39.7 0 72 32.3 72 72zm-72-192h-48c-39.7 0-72-32.3-72-72V64h192v24c0 39.7-32.3 72-72 72z"/>
</svg>
